<mxfile host="app.diagrams.net" modified="2024-08-21T13:44:10.589Z" agent="Mozilla/5.0 (Windows NT 10.0; Win64; x64) AppleWebKit/537.36 (KHTML, like Gecko) Chrome/127.0.0.0 Safari/537.36" etag="XzyeEFBfEayVJTCAp_mB" version="24.0.0" type="device">
  <diagram name="Page-1" id="JOvivDJkYyHZlOQ6cNtx">
    <mxGraphModel dx="4947" dy="2206" grid="1" gridSize="10" guides="1" tooltips="1" connect="1" arrows="1" fold="1" page="1" pageScale="1" pageWidth="850" pageHeight="750" background="#FAFAFA" math="0" shadow="0">
      <root>
        <mxCell id="0" />
        <mxCell id="1" parent="0" />
        <mxCell id="BaL2JgACde-wXW-gFJsN-10" value="" style="swimlane;startSize=0;strokeWidth=7;" vertex="1" parent="1">
          <mxGeometry x="-130" y="163" width="340" height="310" as="geometry">
            <mxRectangle x="40" y="350" width="50" height="40" as="alternateBounds" />
          </mxGeometry>
        </mxCell>
        <mxCell id="BaL2JgACde-wXW-gFJsN-5" value="" style="group" vertex="1" connectable="0" parent="BaL2JgACde-wXW-gFJsN-10">
          <mxGeometry x="18.900000000000002" y="32.5" width="302.2" height="245" as="geometry" />
        </mxCell>
        <mxCell id="BaL2JgACde-wXW-gFJsN-2" value="" style="verticalLabelPosition=bottom;html=1;verticalAlign=top;strokeWidth=1;align=center;outlineConnect=0;dashed=0;outlineConnect=0;shape=mxgraph.aws3d.dataCenter;strokeColor=#5E5E5E;aspect=fixed;movable=1;resizable=1;rotatable=1;deletable=1;editable=1;locked=0;connectable=1;" vertex="1" parent="BaL2JgACde-wXW-gFJsN-5">
          <mxGeometry x="95.52298850574714" width="95.78140929535232" height="110.5769115442279" as="geometry" />
        </mxCell>
        <mxCell id="BaL2JgACde-wXW-gFJsN-1" value="" style="verticalLabelPosition=bottom;html=1;verticalAlign=top;strokeWidth=1;align=center;outlineConnect=0;dashed=0;outlineConnect=0;shape=mxgraph.aws3d.dataCenter;strokeColor=#5E5E5E;aspect=fixed;movable=1;resizable=1;rotatable=1;deletable=1;editable=1;locked=0;connectable=1;" vertex="1" parent="BaL2JgACde-wXW-gFJsN-5">
          <mxGeometry y="72.05882352941177" width="95.78140929535232" height="110.5769115442279" as="geometry" />
        </mxCell>
        <mxCell id="BaL2JgACde-wXW-gFJsN-3" value="" style="verticalLabelPosition=bottom;html=1;verticalAlign=top;strokeWidth=1;align=center;outlineConnect=0;dashed=0;outlineConnect=0;shape=mxgraph.aws3d.dataCenter;strokeColor=#5E5E5E;aspect=fixed;movable=1;resizable=1;rotatable=1;deletable=1;editable=1;locked=0;connectable=1;" vertex="1" parent="BaL2JgACde-wXW-gFJsN-5">
          <mxGeometry x="106.81206896551724" y="117.09558823529412" width="95.78140929535232" height="110.5769115442279" as="geometry" />
        </mxCell>
        <mxCell id="BaL2JgACde-wXW-gFJsN-4" value="" style="verticalLabelPosition=bottom;html=1;verticalAlign=top;strokeWidth=1;align=center;outlineConnect=0;dashed=0;outlineConnect=0;shape=mxgraph.aws3d.dataCenter;strokeColor=#5E5E5E;aspect=fixed;movable=1;resizable=1;rotatable=1;deletable=1;editable=1;locked=0;connectable=1;" vertex="1" parent="BaL2JgACde-wXW-gFJsN-5">
          <mxGeometry x="202.33505747126435" y="45.036764705882355" width="95.78140929535232" height="110.5769115442279" as="geometry" />
        </mxCell>
        <mxCell id="BaL2JgACde-wXW-gFJsN-11" value="" style="shape=flexArrow;endArrow=classic;html=1;rounded=0;endWidth=29.23076923076923;endSize=10.2;fillColor=#0F97FF;strokeColor=#6c8ebf;" edge="1" parent="1">
          <mxGeometry width="50" height="50" relative="1" as="geometry">
            <mxPoint x="-240" y="293" as="sourcePoint" />
            <mxPoint x="-140" y="293" as="targetPoint" />
            <Array as="points" />
          </mxGeometry>
        </mxCell>
        <mxCell id="BaL2JgACde-wXW-gFJsN-17" value="" style="shape=flexArrow;endArrow=classic;html=1;rounded=0;endWidth=29.23076923076923;endSize=10.2;fillColor=#FF242B;strokeColor=#6c8ebf;" edge="1" parent="1">
          <mxGeometry width="50" height="50" relative="1" as="geometry">
            <mxPoint x="-150" y="342.23" as="sourcePoint" />
            <mxPoint x="-250" y="342" as="targetPoint" />
            <Array as="points" />
          </mxGeometry>
        </mxCell>
        <mxCell id="BaL2JgACde-wXW-gFJsN-20" value="" style="group;direction=north;" vertex="1" connectable="0" parent="1">
          <mxGeometry x="-410" y="315.14" width="155" height="190" as="geometry" />
        </mxCell>
        <mxCell id="BaL2JgACde-wXW-gFJsN-101" value="" style="edgeStyle=orthogonalEdgeStyle;rounded=0;orthogonalLoop=1;jettySize=auto;html=1;" edge="1" parent="BaL2JgACde-wXW-gFJsN-20" source="BaL2JgACde-wXW-gFJsN-18" target="BaL2JgACde-wXW-gFJsN-19">
          <mxGeometry relative="1" as="geometry" />
        </mxCell>
        <mxCell id="BaL2JgACde-wXW-gFJsN-18" value="&lt;font style=&quot;font-size: 24px;&quot;&gt;Cooling System&lt;/font&gt;" style="rounded=0;whiteSpace=wrap;html=1;direction=south;" vertex="1" parent="BaL2JgACde-wXW-gFJsN-20">
          <mxGeometry x="65" y="-65" width="85" height="190" as="geometry" />
        </mxCell>
        <mxCell id="BaL2JgACde-wXW-gFJsN-13" value="&lt;font style=&quot;font-size: 24px;&quot;&gt;Air&lt;/font&gt;&lt;div&gt;&lt;font style=&quot;font-size: 24px;&quot;&gt;Cooling&lt;/font&gt;&lt;/div&gt;" style="whiteSpace=wrap;html=1;aspect=fixed;direction=south;" vertex="1" parent="BaL2JgACde-wXW-gFJsN-20">
          <mxGeometry x="-30" y="-64.60000000000002" width="90" height="90" as="geometry" />
        </mxCell>
        <mxCell id="BaL2JgACde-wXW-gFJsN-19" value="&lt;font style=&quot;font-size: 24px;&quot;&gt;Liquid&lt;/font&gt;&lt;div&gt;&lt;font style=&quot;font-size: 24px;&quot;&gt;Cooling&lt;/font&gt;&lt;/div&gt;" style="whiteSpace=wrap;html=1;aspect=fixed;direction=south;" vertex="1" parent="BaL2JgACde-wXW-gFJsN-20">
          <mxGeometry x="-30" y="35" width="90" height="90" as="geometry" />
        </mxCell>
        <mxCell id="BaL2JgACde-wXW-gFJsN-33" value="&lt;ul style=&quot;font-size: 22px;&quot;&gt;&lt;li&gt;Computer room air conditioner units (CRAC)&amp;nbsp;&lt;br&gt;&lt;/li&gt;&lt;li&gt;Computer room air handler units (CRAH)&lt;br&gt;&lt;/li&gt;&lt;li&gt;In-row cooling&lt;br&gt;&lt;/li&gt;&lt;li&gt;Rear door cooling&lt;br&gt;&lt;/li&gt;&lt;/ul&gt;" style="whiteSpace=wrap;html=1;aspect=fixed;align=left;fillColor=#f8cecc;direction=south;strokeColor=#b85450;" vertex="1" parent="1">
          <mxGeometry x="-780" y="13.000000000000057" width="250" height="250" as="geometry" />
        </mxCell>
        <mxCell id="BaL2JgACde-wXW-gFJsN-34" value="&lt;ol style=&quot;font-size: 22px;&quot;&gt;&lt;li&gt;Indirect cooling&lt;/li&gt;&lt;ul&gt;&lt;li&gt;Single phase liquid cooling&lt;br&gt;&lt;/li&gt;&lt;li&gt;Two-phase cooling&lt;br&gt;&lt;/li&gt;&lt;li&gt;Heat-pipe cooling&amp;nbsp;&lt;br&gt;&lt;/li&gt;&lt;/ul&gt;&lt;li&gt;Direct cooling&lt;br&gt;&lt;/li&gt;&lt;ul&gt;&lt;li&gt;Pool-boiling cooling (immersing).&lt;br&gt;&lt;/li&gt;&lt;li&gt;Spray-boiling cooling.&lt;br&gt;&lt;/li&gt;&lt;/ul&gt;&lt;/ol&gt;" style="whiteSpace=wrap;html=1;aspect=fixed;align=left;fillColor=#f8cecc;direction=south;strokeColor=#b85450;" vertex="1" parent="1">
          <mxGeometry x="-830" y="413" width="310" height="310" as="geometry" />
        </mxCell>
        <mxCell id="BaL2JgACde-wXW-gFJsN-36" style="edgeStyle=orthogonalEdgeStyle;rounded=0;orthogonalLoop=1;jettySize=auto;html=1;exitX=0.5;exitY=0;exitDx=0;exitDy=0;entryX=0.5;entryY=1;entryDx=0;entryDy=0;shape=link;" edge="1" parent="1" source="BaL2JgACde-wXW-gFJsN-33" target="BaL2JgACde-wXW-gFJsN-13">
          <mxGeometry relative="1" as="geometry" />
        </mxCell>
        <mxCell id="BaL2JgACde-wXW-gFJsN-37" style="edgeStyle=orthogonalEdgeStyle;rounded=0;orthogonalLoop=1;jettySize=auto;html=1;exitX=0.5;exitY=0;exitDx=0;exitDy=0;entryX=0.5;entryY=1;entryDx=0;entryDy=0;shape=link;" edge="1" parent="1" source="BaL2JgACde-wXW-gFJsN-34" target="BaL2JgACde-wXW-gFJsN-19">
          <mxGeometry relative="1" as="geometry" />
        </mxCell>
        <mxCell id="BaL2JgACde-wXW-gFJsN-49" value="&lt;ol style=&quot;font-size: 22px;&quot;&gt;&lt;li style=&quot;&quot;&gt;&lt;span style=&quot;background-color: initial;&quot;&gt;&lt;font style=&quot;font-size: 22px;&quot;&gt;Air Sensor&lt;/font&gt;&lt;/span&gt;&lt;/li&gt;&lt;ul style=&quot;&quot;&gt;&lt;li&gt;&lt;span style=&quot;background-color: initial;&quot;&gt;&lt;font style=&quot;font-size: 22px;&quot;&gt;Temperature&amp;nbsp;&lt;/font&gt;&lt;/span&gt;&lt;/li&gt;&lt;li&gt;&lt;font style=&quot;font-size: 22px;&quot;&gt;Pressure&lt;/font&gt;&lt;/li&gt;&lt;li&gt;&lt;font style=&quot;font-size: 22px;&quot;&gt;Humidity&lt;/font&gt;&lt;/li&gt;&lt;/ul&gt;&lt;li&gt;Liquid Sensor&lt;/li&gt;&lt;ul&gt;&lt;li&gt;&lt;span style=&quot;&quot;&gt;Temperature&lt;/span&gt;&lt;/li&gt;&lt;li&gt;&lt;span style=&quot;&quot;&gt;Pressure&lt;/span&gt;&lt;/li&gt;&lt;li&gt;&lt;span style=&quot;&quot;&gt;Leakage&lt;/span&gt;&lt;/li&gt;&lt;/ul&gt;&lt;li&gt;Electrical Sensor&lt;/li&gt;&lt;ul&gt;&lt;li&gt;Power Consumption&lt;/li&gt;&lt;/ul&gt;&lt;/ol&gt;&lt;ol style=&quot;font-size: 18px;&quot;&gt;&lt;/ol&gt;" style="rounded=0;whiteSpace=wrap;html=1;align=left;fillColor=#d5e8d4;strokeColor=#82b366;" vertex="1" parent="1">
          <mxGeometry x="-30" y="1160" width="285" height="263.14" as="geometry" />
        </mxCell>
        <mxCell id="BaL2JgACde-wXW-gFJsN-56" style="edgeStyle=orthogonalEdgeStyle;rounded=0;orthogonalLoop=1;jettySize=auto;html=1;exitX=0.5;exitY=1;exitDx=0;exitDy=0;shape=link;width=3.8888888888888893;entryX=0.088;entryY=-0.029;entryDx=0;entryDy=0;entryPerimeter=0;" edge="1" parent="1" source="BaL2JgACde-wXW-gFJsN-39" target="BaL2JgACde-wXW-gFJsN-49">
          <mxGeometry relative="1" as="geometry" />
        </mxCell>
        <mxCell id="BaL2JgACde-wXW-gFJsN-58" value="" style="shape=flexArrow;endArrow=classic;html=1;rounded=0;endWidth=29.23076923076923;endSize=10.2;fillColor=#404040;strokeColor=#6c8ebf;" edge="1" parent="1">
          <mxGeometry width="50" height="50" relative="1" as="geometry">
            <mxPoint x="40.34" y="493" as="sourcePoint" />
            <mxPoint x="40" y="583" as="targetPoint" />
            <Array as="points" />
          </mxGeometry>
        </mxCell>
        <mxCell id="BaL2JgACde-wXW-gFJsN-67" value="" style="endArrow=classic;startArrow=classic;html=1;rounded=0;entryX=0;entryY=1;entryDx=0;entryDy=0;exitX=1;exitY=0.5;exitDx=0;exitDy=0;strokeWidth=2;" edge="1" parent="1" source="BaL2JgACde-wXW-gFJsN-18" target="BaL2JgACde-wXW-gFJsN-23">
          <mxGeometry width="50" height="50" relative="1" as="geometry">
            <mxPoint x="-340" y="583" as="sourcePoint" />
            <mxPoint x="-290" y="533" as="targetPoint" />
          </mxGeometry>
        </mxCell>
        <mxCell id="BaL2JgACde-wXW-gFJsN-69" value="&lt;font style=&quot;font-size: 24px;&quot;&gt;Control System&lt;/font&gt;" style="rounded=0;whiteSpace=wrap;html=1;direction=south;" vertex="1" parent="1">
          <mxGeometry x="330" y="253" width="85" height="170" as="geometry" />
        </mxCell>
        <mxCell id="BaL2JgACde-wXW-gFJsN-70" value="" style="shape=flexArrow;endArrow=classic;html=1;rounded=0;endWidth=29.23076923076923;endSize=10.2;fillColor=#949494;strokeColor=#6c8ebf;" edge="1" parent="1">
          <mxGeometry width="50" height="50" relative="1" as="geometry">
            <mxPoint x="320" y="333.23" as="sourcePoint" />
            <mxPoint x="220" y="333" as="targetPoint" />
            <Array as="points" />
          </mxGeometry>
        </mxCell>
        <mxCell id="BaL2JgACde-wXW-gFJsN-77" style="edgeStyle=orthogonalEdgeStyle;rounded=0;orthogonalLoop=1;jettySize=auto;html=1;exitX=0;exitY=0.5;exitDx=0;exitDy=0;entryX=0;entryY=0.5;entryDx=0;entryDy=0;shape=link;" edge="1" parent="1" source="BaL2JgACde-wXW-gFJsN-73" target="BaL2JgACde-wXW-gFJsN-76">
          <mxGeometry relative="1" as="geometry" />
        </mxCell>
        <mxCell id="BaL2JgACde-wXW-gFJsN-73" value="&lt;font style=&quot;font-size: 24px;&quot;&gt;Intelligent&lt;br&gt;Control&lt;/font&gt;" style="rounded=0;whiteSpace=wrap;html=1;movable=1;resizable=1;rotatable=1;deletable=1;editable=1;locked=0;connectable=1;direction=south;" vertex="1" parent="1">
          <mxGeometry x="425" y="253" width="135" height="80" as="geometry" />
        </mxCell>
        <mxCell id="BaL2JgACde-wXW-gFJsN-78" style="edgeStyle=orthogonalEdgeStyle;rounded=0;orthogonalLoop=1;jettySize=auto;html=1;exitX=1;exitY=0.5;exitDx=0;exitDy=0;entryX=0;entryY=0.5;entryDx=0;entryDy=0;shape=link;" edge="1" parent="1" source="BaL2JgACde-wXW-gFJsN-74" target="BaL2JgACde-wXW-gFJsN-75">
          <mxGeometry relative="1" as="geometry">
            <mxPoint x="680" y="433.0000000000002" as="targetPoint" />
          </mxGeometry>
        </mxCell>
        <mxCell id="BaL2JgACde-wXW-gFJsN-74" value="&lt;font style=&quot;font-size: 24px;&quot;&gt;Traditional&lt;br&gt;Control&lt;/font&gt;" style="rounded=0;whiteSpace=wrap;html=1;movable=1;resizable=1;rotatable=1;deletable=1;editable=1;locked=0;connectable=1;direction=south;" vertex="1" parent="1">
          <mxGeometry x="425" y="343" width="135" height="80" as="geometry" />
        </mxCell>
        <mxCell id="BaL2JgACde-wXW-gFJsN-75" value="&lt;ul style=&quot;font-size: 22px;&quot;&gt;&lt;li&gt;&lt;span style=&quot;background-color: initial;&quot;&gt;PID control&lt;/span&gt;&lt;/li&gt;&lt;li&gt;&lt;span style=&quot;background-color: initial;&quot;&gt;PI&amp;nbsp;&lt;/span&gt;&lt;br&gt;&lt;/li&gt;&lt;li&gt;&lt;span style=&quot;background-color: initial;&quot;&gt;...?&lt;/span&gt;&lt;/li&gt;&lt;/ul&gt;" style="rounded=0;whiteSpace=wrap;html=1;align=left;fillColor=#dae8fc;strokeColor=#6c8ebf;" vertex="1" parent="1">
          <mxGeometry x="550" y="498.14" width="270" height="139.72" as="geometry" />
        </mxCell>
        <mxCell id="BaL2JgACde-wXW-gFJsN-76" value="&lt;div style=&quot;font-size: 22px;&quot;&gt;&lt;ul&gt;&lt;li&gt;Fuzzy Logic Control&lt;/li&gt;&lt;li&gt;Neural Network based control&lt;/li&gt;&lt;li&gt;Model predictive control (MPC)&lt;br&gt;&lt;/li&gt;&lt;/ul&gt;&lt;/div&gt;&lt;ol style=&quot;font-size: 18px;&quot;&gt;&lt;/ol&gt;" style="rounded=0;whiteSpace=wrap;html=1;align=left;fillColor=#dae8fc;strokeColor=#6c8ebf;" vertex="1" parent="1">
          <mxGeometry x="550" y="33" width="270" height="150.07" as="geometry" />
        </mxCell>
        <mxCell id="BaL2JgACde-wXW-gFJsN-80" value="" style="endArrow=classic;startArrow=classic;html=1;rounded=0;entryX=1;entryY=0.5;entryDx=0;entryDy=0;exitX=0;exitY=0;exitDx=0;exitDy=0;strokeWidth=2;" edge="1" parent="1" source="BaL2JgACde-wXW-gFJsN-23" target="BaL2JgACde-wXW-gFJsN-69">
          <mxGeometry width="50" height="50" relative="1" as="geometry">
            <mxPoint x="260" y="513" as="sourcePoint" />
            <mxPoint x="310" y="463" as="targetPoint" />
          </mxGeometry>
        </mxCell>
        <mxCell id="BaL2JgACde-wXW-gFJsN-51" value="&lt;ul style=&quot;font-size: 22px;&quot;&gt;&lt;li&gt;&lt;span style=&quot;background-color: initial;&quot;&gt;Wired Network&lt;/span&gt;&lt;/li&gt;&lt;li&gt;&lt;span style=&quot;background-color: initial;&quot;&gt;Wireless Network&lt;/span&gt;&lt;/li&gt;&lt;/ul&gt;" style="rounded=0;whiteSpace=wrap;html=1;align=left;fillColor=#d5e8d4;strokeColor=#82b366;" vertex="1" parent="1">
          <mxGeometry x="79" y="991" width="218" height="139.72" as="geometry" />
        </mxCell>
        <mxCell id="BaL2JgACde-wXW-gFJsN-57" style="edgeStyle=orthogonalEdgeStyle;rounded=0;orthogonalLoop=1;jettySize=auto;html=1;exitX=0.5;exitY=1;exitDx=0;exitDy=0;entryX=0.069;entryY=-0.036;entryDx=0;entryDy=0;shape=link;entryPerimeter=0;" edge="1" parent="1" source="BaL2JgACde-wXW-gFJsN-44" target="BaL2JgACde-wXW-gFJsN-51">
          <mxGeometry relative="1" as="geometry" />
        </mxCell>
        <mxCell id="BaL2JgACde-wXW-gFJsN-81" value="" style="group" vertex="1" connectable="0" parent="1">
          <mxGeometry x="-50" y="600.540941704036" width="190" height="119.37" as="geometry" />
        </mxCell>
        <mxCell id="BaL2JgACde-wXW-gFJsN-44" value="&lt;font style=&quot;font-size: 24px;&quot;&gt;Network&lt;/font&gt;" style="rounded=0;whiteSpace=wrap;html=1;movable=1;resizable=1;rotatable=1;deletable=1;editable=1;locked=0;connectable=1;" vertex="1" parent="BaL2JgACde-wXW-gFJsN-81">
          <mxGeometry x="100" y="57.32000000000005" width="90" height="62.05" as="geometry" />
        </mxCell>
        <mxCell id="BaL2JgACde-wXW-gFJsN-23" value="&lt;font style=&quot;font-size: 24px;&quot;&gt;ICT System&lt;/font&gt;" style="rounded=0;whiteSpace=wrap;html=1;movable=1;resizable=1;rotatable=1;deletable=1;editable=1;locked=0;connectable=1;direction=south;" vertex="1" parent="BaL2JgACde-wXW-gFJsN-81">
          <mxGeometry width="190" height="47.32" as="geometry" />
        </mxCell>
        <mxCell id="BaL2JgACde-wXW-gFJsN-39" value="&lt;font style=&quot;font-size: 24px;&quot;&gt;Sensors&lt;/font&gt;" style="rounded=0;whiteSpace=wrap;html=1;movable=1;resizable=1;rotatable=1;deletable=1;editable=1;locked=0;connectable=1;" vertex="1" parent="BaL2JgACde-wXW-gFJsN-81">
          <mxGeometry y="57.32000000000005" width="90" height="62.05" as="geometry" />
        </mxCell>
        <mxCell id="BaL2JgACde-wXW-gFJsN-85" value="&lt;font style=&quot;font-size: 25px;&quot;&gt;Optimization&amp;nbsp;&lt;/font&gt;" style="ellipse;shape=cloud;whiteSpace=wrap;html=1;" vertex="1" parent="1">
          <mxGeometry x="-650" y="1100" width="220" height="150" as="geometry" />
        </mxCell>
        <mxCell id="BaL2JgACde-wXW-gFJsN-86" value="&lt;font style=&quot;font-size: 24px;&quot;&gt;Artifical&amp;nbsp;&lt;/font&gt;&lt;div&gt;&lt;font style=&quot;font-size: 24px;&quot;&gt;Intelligence&lt;/font&gt;&lt;/div&gt;" style="ellipse;shape=cloud;whiteSpace=wrap;html=1;" vertex="1" parent="1">
          <mxGeometry x="-782.5" y="820" width="215" height="160" as="geometry" />
        </mxCell>
        <mxCell id="BaL2JgACde-wXW-gFJsN-87" value="&lt;font style=&quot;font-size: 24px;&quot;&gt;DataCenter&lt;/font&gt;" style="text;html=1;align=center;verticalAlign=middle;resizable=0;points=[];autosize=1;strokeColor=none;fillColor=none;" vertex="1" parent="1">
          <mxGeometry x="-30" y="118" width="150" height="40" as="geometry" />
        </mxCell>
        <mxCell id="BaL2JgACde-wXW-gFJsN-88" value="&lt;font style=&quot;font-size: 24px;&quot;&gt;Virtualization&lt;/font&gt;" style="ellipse;shape=cloud;whiteSpace=wrap;html=1;" vertex="1" parent="1">
          <mxGeometry x="-242" y="1110" width="192" height="130" as="geometry" />
        </mxCell>
        <mxCell id="BaL2JgACde-wXW-gFJsN-94" value="" style="group" vertex="1" connectable="0" parent="1">
          <mxGeometry x="-490" y="750" width="370" height="230" as="geometry" />
        </mxCell>
        <mxCell id="BaL2JgACde-wXW-gFJsN-82" value="" style="shape=process;whiteSpace=wrap;html=1;backgroundOutline=1;strokeWidth=0.5;" vertex="1" parent="BaL2JgACde-wXW-gFJsN-94">
          <mxGeometry width="370" height="230" as="geometry" />
        </mxCell>
        <mxCell id="BaL2JgACde-wXW-gFJsN-6" value="" style="image;aspect=fixed;html=1;points=[];align=center;fontSize=12;image=img/lib/azure2/ai_machine_learning/Cognitive_Services.svg;" vertex="1" parent="BaL2JgACde-wXW-gFJsN-94">
          <mxGeometry x="69.56" y="17" width="238.01" height="168" as="geometry" />
        </mxCell>
        <mxCell id="BaL2JgACde-wXW-gFJsN-91" value="&lt;font style=&quot;font-size: 24px;&quot;&gt;Digital Twin&lt;/font&gt;" style="text;html=1;align=center;verticalAlign=middle;resizable=0;points=[];autosize=1;strokeColor=none;fillColor=none;" vertex="1" parent="BaL2JgACde-wXW-gFJsN-94">
          <mxGeometry x="104.56" y="190" width="150" height="40" as="geometry" />
        </mxCell>
        <mxCell id="BaL2JgACde-wXW-gFJsN-95" value="" style="endArrow=none;dashed=1;html=1;dashPattern=1 3;strokeWidth=6;rounded=0;entryX=0.875;entryY=0.5;entryDx=0;entryDy=0;entryPerimeter=0;exitX=0.009;exitY=0.557;exitDx=0;exitDy=0;exitPerimeter=0;" edge="1" parent="1" source="BaL2JgACde-wXW-gFJsN-82" target="BaL2JgACde-wXW-gFJsN-86">
          <mxGeometry width="50" height="50" relative="1" as="geometry">
            <mxPoint x="-490" y="900" as="sourcePoint" />
            <mxPoint x="-760" y="1050" as="targetPoint" />
          </mxGeometry>
        </mxCell>
        <mxCell id="BaL2JgACde-wXW-gFJsN-96" value="" style="endArrow=none;dashed=1;html=1;dashPattern=1 3;strokeWidth=6;rounded=0;entryX=0.78;entryY=0.177;entryDx=0;entryDy=0;entryPerimeter=0;" edge="1" parent="1" target="BaL2JgACde-wXW-gFJsN-85">
          <mxGeometry width="50" height="50" relative="1" as="geometry">
            <mxPoint x="-400" y="990" as="sourcePoint" />
            <mxPoint x="-387.5" y="1470" as="targetPoint" />
          </mxGeometry>
        </mxCell>
        <mxCell id="BaL2JgACde-wXW-gFJsN-97" value="" style="endArrow=none;dashed=1;html=1;dashPattern=1 3;strokeWidth=6;rounded=0;exitX=0.75;exitY=1;exitDx=0;exitDy=0;" edge="1" parent="1" source="BaL2JgACde-wXW-gFJsN-82" target="BaL2JgACde-wXW-gFJsN-88">
          <mxGeometry width="50" height="50" relative="1" as="geometry">
            <mxPoint x="-370" y="1490" as="sourcePoint" />
            <mxPoint x="-479" y="1510" as="targetPoint" />
          </mxGeometry>
        </mxCell>
        <mxCell id="BaL2JgACde-wXW-gFJsN-108" style="edgeStyle=orthogonalEdgeStyle;rounded=0;orthogonalLoop=1;jettySize=auto;html=1;exitX=0.5;exitY=0;exitDx=0;exitDy=0;entryX=0.5;entryY=0;entryDx=0;entryDy=0;shape=link;" edge="1" parent="1" source="BaL2JgACde-wXW-gFJsN-98" target="BaL2JgACde-wXW-gFJsN-107">
          <mxGeometry relative="1" as="geometry" />
        </mxCell>
        <mxCell id="BaL2JgACde-wXW-gFJsN-98" value="&lt;font style=&quot;font-size: 24px;&quot;&gt;Monitoring System&lt;/font&gt;" style="rounded=0;whiteSpace=wrap;html=1;direction=west;" vertex="1" parent="1">
          <mxGeometry x="415" y="750" width="220" height="90" as="geometry" />
        </mxCell>
        <mxCell id="BaL2JgACde-wXW-gFJsN-102" value="" style="endArrow=classic;startArrow=classic;html=1;rounded=0;exitX=0.5;exitY=0;exitDx=0;exitDy=0;entryX=1;entryY=1;entryDx=0;entryDy=0;strokeWidth=2;" edge="1" parent="1" source="BaL2JgACde-wXW-gFJsN-82" target="BaL2JgACde-wXW-gFJsN-23">
          <mxGeometry width="50" height="50" relative="1" as="geometry">
            <mxPoint x="-50" y="910" as="sourcePoint" />
            <mxPoint x="-50" y="650" as="targetPoint" />
          </mxGeometry>
        </mxCell>
        <mxCell id="BaL2JgACde-wXW-gFJsN-106" value="" style="endArrow=classic;startArrow=classic;html=1;rounded=0;entryX=1;entryY=1;entryDx=0;entryDy=0;exitX=1;exitY=0;exitDx=0;exitDy=0;strokeWidth=2;" edge="1" parent="1" source="BaL2JgACde-wXW-gFJsN-23" target="BaL2JgACde-wXW-gFJsN-98">
          <mxGeometry width="50" height="50" relative="1" as="geometry">
            <mxPoint x="375" y="710" as="sourcePoint" />
            <mxPoint x="425" y="660" as="targetPoint" />
          </mxGeometry>
        </mxCell>
        <mxCell id="BaL2JgACde-wXW-gFJsN-107" value="&lt;ul style=&quot;font-size: 22px;&quot;&gt;&lt;li style=&quot;&quot;&gt;Open Energy Management System (OpenEMS)&lt;br&gt;&lt;/li&gt;&lt;li style=&quot;&quot;&gt;Grafana&lt;br&gt;&lt;/li&gt;&lt;li style=&quot;&quot;&gt;Node-RED&lt;br&gt;&lt;/li&gt;&lt;/ul&gt;&lt;ol style=&quot;font-size: 18px;&quot;&gt;&lt;/ol&gt;" style="rounded=0;whiteSpace=wrap;html=1;align=left;fillColor=#ffe6cc;strokeColor=#d79b00;" vertex="1" parent="1">
          <mxGeometry x="407.5" y="940" width="235" height="170" as="geometry" />
        </mxCell>
      </root>
    </mxGraphModel>
  </diagram>
</mxfile>
